<?xml version="1.0" encoding="UTF-8"?>
<svg id="Layer_2" data-name="Layer 2" xmlns="http://www.w3.org/2000/svg" viewBox="0 0 139.92 131.06">
  <defs>
    <style>
      .cls-1 {
        fill: #484845;
      }

      .cls-1, .cls-2, .cls-3, .cls-4, .cls-5, .cls-6 {
        stroke-width: 0px;
      }

      .cls-2 {
        fill: #020201;
      }

      .cls-3 {
        fill: #747170;
      }

      .cls-4 {
        fill: #636161;
      }

      .cls-5 {
        fill: #a7a6a4;
      }

      .cls-6 {
        fill: #fefefd;
      }
    </style>
  </defs>
  <g id="Layer_1-2" data-name="Layer 1">
    <g>
      <path class="cls-2" d="M43.32,63.66c17.45,2.24,35.17,1.98,52.65.1l-.29,56.74c-17.32,2.14-35.23,2.51-52.46-.29q.05-28.27.1-56.55Z"/>
      <path class="cls-2" d="M126.04,55.29q.05,26.33.1,52.65c-4.77,7.59-18.46,10.43-26.96,11.97l-.29-56.35c9.26-1.95,18.95-3.21,27.15-8.27Z"/>
      <path class="cls-2" d="M14.31,55.09c7.61,5.19,16.99,6.39,25.79,8.27q-.05,28.18-.1,56.35c-8.01-1.2-22.36-4.42-26.37-11.97.16-.11.58-.73.58-.78-.27-17.28.04-34.59.1-51.87Z"/>
      <path class="cls-2" d="M11,107.84c2.91,8.52,19.26,12.25,27.25,13.63,18.03,3.1,80.69,5.79,90.71-13.63,1.17,7.38.03,11.02-6.42,14.79-19.02,11.14-85.04,11.14-104.33.58-6.69-3.66-8.56-7.71-7.2-15.38Z"/>
      <g>
        <path class="cls-2" d="M137.92,0c3.18-.14,2,2.33.39,3.7-2.59,2.21-43.5,23.25-50.71,27.15,8.42.92,45.03,2.36,39.51,17.71-1.75,4.87-14.69,8.42-19.37,9.44-18.7,4.08-46.49,4.55-65.4,1.75-6.06-.9-26.34-4.78-28.71-11-7.49-19.62,53.81-18.21,63.36-18.39Q106.28,15.58,135.58.78c.62-.04,1.88-.76,2.34-.78Z"/>
        <g>
          <path class="cls-4" d="M79.62,35.24v-.19c4.62-2.35,4.4-2.17,0,.19Z"/>
          <path class="cls-5" d="M79.62,35.04v.19c-1.02.55-2.1,1.01-3.11,1.56h-.19c1.11-.57,2.19-1.18,3.31-1.75Z"/>
          <path class="cls-3" d="M53.54,43.41c-.17.11-1.15,1.16-1.95.88.92-.6,1.85-.83,1.95-.88Z"/>
          <path class="cls-4" d="M55.29,42.44c-.63.48-1.06.64-1.75.97.78-.48.76-.57,1.75-.97Z"/>
          <path class="cls-4" d="M73.78,31.93c-.69.49-.51.43-1.36.78.58-.45.7-.5,1.36-.78Z"/>
          <path class="cls-4" d="M63.27,37.77c-.49.29-.83.52-1.36.78.56-.36.84-.48,1.36-.78Z"/>
          <path class="cls-4" d="M66.67,35.63c1.13-.26-.52.95-.68.49-.02-.05.61-.47.68-.49Z"/>
          <path class="cls-4" d="M69.3,34.46c-.05.03-.5.83-1.17.49.53-.35,1.1-.45,1.17-.49Z"/>
          <path class="cls-4" d="M64.63,36.99c.06-.03.59-.87,1.17-.49-.43.31-1.11.45-1.17.49Z"/>
          <path class="cls-4" d="M69.3,34.46c.08-.05.57-.81.97-.49-.37.45-.91.46-.97.49Z"/>
          <path class="cls-4" d="M70.96,33.29c.82-.26.3.64-.19.39-.19-.09.13-.37.19-.39Z"/>
          <path class="cls-4" d="M61.32,38.94s-.2.65-.78.29c.26-.43.67-.24.78-.29Z"/>
          <path class="cls-1" d="M73.78,31.93s.5-.59.78-.29c-.26.43-.71.24-.78.29Z"/>
          <path class="cls-4" d="M64.05,37.38c-.64.39-.74.37-.78.39.28-.16.51-.25.78-.39Z"/>
          <path class="cls-4" d="M58.11,40.49c.1-.04.45-.04.49.1.1.32-1.44.23-.49-.1Z"/>
          <path class="cls-4" d="M72.42,32.71s-.22.63-.58.29c.26-.39.56-.27.58-.29Z"/>
          <path class="cls-4" d="M64.63,36.99s-.03.1-.58.39c.15-.09.35-.25.58-.39Z"/>
          <path class="cls-4" d="M61.91,38.55c-.13.08-.14.16-.58.39.03-.02-.02-.09.58-.39Z"/>
          <path class="cls-4" d="M55.29,42.44s.22-.63.58-.29c-.26.39-.56.27-.58.29Z"/>
          <g>
            <path class="cls-6" d="M76.31,36.79h.19c-5.58,3.01-15.72,8.38-20.54,11.29-8.83,5.33-7.25,8.48-11.39-.68.19-.7,5.7-2.59,6.72-3.02l2.24,3.99.49.1c7.15-4.4,14.83-7.84,22.29-11.68Z"/>
            <path class="cls-2" d="M50.91,44.97l2.43,3.8c-5.67,3.84-4.51,6.1-7.79-1.36l5.35-2.43Z"/>
          </g>
        </g>
      </g>
    </g>
    <g>
      <path class="cls-2" d="M2,0C-1.18-.13,0,2.33,1.61,3.7c2.59,2.21,43.5,23.25,50.71,27.15-8.42.92-45.03,2.36-39.51,17.71,1.75,4.87,14.69,8.42,19.37,9.44,18.7,4.08,46.49,4.55,65.4,1.75,6.06-.9,26.34-4.78,28.71-11,7.49-19.62-53.81-18.21-63.36-18.39Q33.63,15.58,4.34.78C3.72.74,2.46.03,2,0Z"/>
      <g>
        <path class="cls-4" d="M60.3,35.24v-.19c-4.62-2.35-4.4-2.17,0,.19Z"/>
        <path class="cls-5" d="M60.3,35.04v.19c1.02.55,2.1,1.01,3.11,1.56h.19c-1.11-.57-2.19-1.18-3.31-1.75Z"/>
        <path class="cls-3" d="M86.38,43.41c.17.11,1.15,1.16,1.95.88-.92-.6-1.85-.83-1.95-.88Z"/>
        <path class="cls-4" d="M84.63,42.44c.63.48,1.06.64,1.75.97-.78-.48-.76-.57-1.75-.97Z"/>
        <path class="cls-4" d="M66.14,31.93c.69.49.51.43,1.36.78-.58-.45-.7-.5-1.36-.78Z"/>
        <path class="cls-4" d="M76.65,37.77c.49.29.83.52,1.36.78-.56-.36-.84-.48-1.36-.78Z"/>
        <path class="cls-4" d="M73.24,35.63c-1.13-.26.52.95.68.49.02-.05-.61-.47-.68-.49Z"/>
        <path class="cls-4" d="M70.62,34.46c.05.03.5.83,1.17.49-.53-.35-1.1-.45-1.17-.49Z"/>
        <path class="cls-4" d="M75.29,36.99c-.06-.03-.59-.87-1.17-.49.43.31,1.11.45,1.17.49Z"/>
        <path class="cls-4" d="M70.62,34.46c-.08-.05-.57-.81-.97-.49.37.45.91.46.97.49Z"/>
        <path class="cls-4" d="M68.96,33.29c-.82-.26-.3.64.19.39.19-.09-.13-.37-.19-.39Z"/>
        <path class="cls-4" d="M78.6,38.94s.2.65.78.29c-.26-.43-.67-.24-.78-.29Z"/>
        <path class="cls-1" d="M66.14,31.93s-.5-.59-.78-.29c.26.43.71.24.78.29Z"/>
        <path class="cls-4" d="M75.87,37.38c.64.39.74.37.78.39-.28-.16-.51-.25-.78-.39Z"/>
        <path class="cls-4" d="M81.81,40.49c-.1-.04-.45-.04-.49.1-.1.32,1.44.23.49-.1Z"/>
        <path class="cls-4" d="M67.5,32.71s.22.63.58.29c-.26-.39-.56-.27-.58-.29Z"/>
        <path class="cls-4" d="M75.29,36.99s.03.1.58.39c-.15-.09-.35-.25-.58-.39Z"/>
        <path class="cls-4" d="M78.01,38.55c.13.08.14.16.58.39-.03-.02.02-.09-.58-.39Z"/>
        <path class="cls-4" d="M84.63,42.44s-.22-.63-.58-.29c.26.39.56.27.58.29Z"/>
        <g>
          <path class="cls-6" d="M63.61,36.79h-.19c5.58,3.01,15.72,8.38,20.54,11.29,8.83,5.33,7.25,8.48,11.39-.68-.19-.7-5.7-2.59-6.72-3.02l-2.24,3.99-.49.1c-7.15-4.4-14.83-7.84-22.29-11.68Z"/>
          <path class="cls-2" d="M89.01,44.97l-2.43,3.8c5.67,3.84,4.51,6.1,7.79-1.36l-5.35-2.43Z"/>
        </g>
      </g>
    </g>
  </g>
</svg>