<?xml version="1.0" encoding="UTF-8"?>
<svg id="Layer_2" data-name="Layer 2" xmlns="http://www.w3.org/2000/svg" viewBox="0 0 100.63 105.02">
  <defs>
    <style>
      .cls-1, .cls-2 {
        stroke-width: 0px;
      }

      .cls-2 {
        fill: #fff;
      }
    </style>
  </defs>
  <g id="Layer_1-2" data-name="Layer 1">
    <g>
      <path class="cls-1" d="M94.69,0l5.94,5.55-4.09,4.87c1.23.64,4.06,1.27,3.11,2.92-1.01,1.75-2.48-.03-4.38-1.46l-2.43,2.63c.73,1.12,4.19,2.12,3.89,3.5-.58,2.68-4.26-1.36-5.16-2.04l-2.43,2.82c6.89.77,1.04,7.64-1.07,1.27-1.4.44-3.04.59-4.28,1.36-2.09,1.3-28.27,32.14-32.8,36.69-1.05,2.54,2.13,5.14,3.21,5.35,3.46.68,10.41-4.99,8.86,2.43-1.51,7.21-12.79,10.1-13.53,10.61-2.12,1.46-1.36,7.31-2.82,12.75-2.34,8.69-9.17,16.8-18.98,15.67-8.58-.99-26.25-17.05-27.54-26.37-2.04-14.67,12.78-20.96,24.82-22.48,1-.44,4.54-8.63,7.49-12.36,2.24-2.83,7.44-7.71,11.39-6.72,3.33.84-1.66,5.93-2.24,7.69-1.59,4.84,2.04,6.89,3.8,6.13l32.8-33.97c.88-2.16,1.15-4.85,2.92-6.42-5.41-2.05-3.45-6.51,1.46-.88,5.77-3.71-.5-1.53.1-4.77.26-1.41,3.69-2.57,3.8,1.65,5.37-2.98.72-2.17.29-3.8-.45-1.73,1.41-3.03,3.02-2.24,2.45,1.21-2.65,6.09,4.87-.39Z"/>
      <path class="cls-2" d="M37.07,58.2c8.38-1.11,13.13,11.02,1.85,14.31-.41.64.58,6.79-3.8,9.05l-12.94-12.36c2.35-3.56,4.81-3.41,8.66-4.18.74-.44,1.15-6.14,6.23-6.81Z"/>
      <path class="cls-2" d="M20.72,70.66c.82-.32,11.18,10.93,12.94,11.97-1.91,1.32-1.76.82-3.41-.49-.54-.43-9.87-8.96-10.02-9.64-.07-.3.34-1.79.49-1.85Z"/>
    </g>
  </g>
</svg>