<?xml version="1.0" encoding="UTF-8"?>
<svg xmlns="http://www.w3.org/2000/svg" viewBox="480 545 940.97 2780.43">
  <defs>
    <style>
      .cls-1 {
        fill: red;
      }

      .cls-1, .cls-2 {
        stroke-width: 33px;
      }

      .cls-3 {
        opacity: .99;
      }

      .cls-2 {
       
        width: 100%; 
  height: 5550px; 
        fill: white;
      }

      .cls-4 {
        opacity: .99;
      }
       #main2 {
  width: 100%; 
  height: 50px; 
  animation: move 5s  infinite; 
   
}

@keyframes move {
  0% {
    transform: translateX(10%);
  }
  50% {
    transform: translateX(20%); 
  }
   100% {
    transform: translateX(10%); 
  }
}


@keyframes rotate {
  0% {
    transform: rotate(0deg);
  }
  100% {
    transform: rotate(60deg);
  }}
    </style>
  </defs>
  <g id="bg-color" class="cls-4">
    <rect class="cls-2" x="1199.33" y="1329" width="1266.2" height="663.38"/>
  </g>
  <g id="main2" class="cls-3">
    <g>
      <polygon class="cls-1" points="135.46 1423.71 183.31 1454.66 216.99 1402.58 189.18 1340.65 135.46 1423.71"/>
      <polygon class="cls-1" points="406.57 1109.49 378.76 1047.56 313.88 1147.86 341.69 1209.8 406.57 1109.49"/>
      <polygon class="cls-1" points="301.47 1271.98 273.66 1210.05 229.41 1278.46 257.21 1340.4 301.47 1271.98"/>
      <polygon class="cls-1" points="501.87 962.15 474.06 900.21 418.98 985.37 446.79 1047.31 501.87 962.15"/>
      <polygon class="cls-1" points="597.82 813.81 583.79 782.54 632.07 760.87 950.57 268.45 902.72 237.5 514.29 838.03 542.1 899.97 597.82 813.81"/>
      <polygon class="cls-1" points="220.08 1501.01 267.93 1531.96 272.15 1525.43 244.34 1463.49 220.08 1501.01"/>
      <polygon class="cls-1" points="328.81 1332.89 284.56 1401.31 312.37 1463.25 356.62 1394.83 328.81 1332.89"/>
      <polygon class="cls-1" points="597.25 1022.81 652.98 936.65 625.17 874.72 569.44 960.87 597.25 1022.81"/>
      <polygon class="cls-1" points="557.03 1085 529.22 1023.06 474.14 1108.22 501.95 1170.15 557.03 1085"/>
      <polygon class="cls-1" points="461.72 1232.34 433.92 1170.4 369.04 1270.71 396.85 1332.64 461.72 1232.34"/>
      <polygon class="cls-1" points="1035.19 345.75 987.34 314.8 665.39 812.53 693.2 874.47 1035.19 345.75"/>
      <polygon class="cls-1" points="667.43 1179.12 723.16 1092.97 695.35 1031.03 639.62 1117.19 667.43 1179.12"/>
      <polygon class="cls-1" points="1146.92 437.82 1099.07 406.87 849.64 792.49 877.45 854.43 1146.92 437.82"/>
      <polygon class="cls-1" points="504.1 1326.71 439.22 1427.02 467.03 1488.96 531.91 1388.65 504.1 1326.71"/>
      <polygon class="cls-1" points="837.23 916.61 809.42 854.67 735.58 968.84 763.38 1030.78 837.23 916.61"/>
      <polygon class="cls-1" points="399 1489.2 354.74 1557.62 382.55 1619.56 426.8 1551.14 399 1489.2"/>
      <polygon class="cls-1" points="572.13 1326.47 627.21 1241.31 599.4 1179.37 544.32 1264.53 572.13 1326.47"/>
      <polygon class="cls-1" points="783.89 1228.23 756.08 1166.29 700.35 1252.45 728.16 1314.38 783.89 1228.23"/>
      <polygon class="cls-1" points="487.53 1686.4 459.73 1624.46 415.47 1692.88 430.36 1726.03 452.6 1740.42 487.53 1686.4"/>
      <polygon class="cls-1" points="1003.79 888.25 975.98 826.31 910.37 927.75 938.18 989.69 1003.79 888.25"/>
      <polygon class="cls-1" points="824.11 1166.04 897.96 1051.87 870.15 989.93 796.3 1104.1 824.11 1166.04"/>
      <polygon class="cls-1" points="632.86 1461.73 687.94 1376.57 660.13 1314.63 605.05 1399.79 632.86 1461.73"/>
      <polygon class="cls-1" points="1219.86 554.21 1172.01 523.26 1016.21 764.13 1044.02 826.07 1219.86 554.21"/>
      <polygon class="cls-1" points="564.83 1461.98 499.95 1562.28 527.76 1624.22 592.64 1523.91 564.83 1461.98"/>
      <polygon class="cls-1" points="781.7 1433.64 837.43 1347.48 809.62 1285.54 753.89 1371.7 781.7 1433.64"/>
      <polygon class="cls-1" points="618.37 1581.23 553.49 1681.53 581.3 1743.47 646.18 1643.16 618.37 1581.23"/>
      <polygon class="cls-1" points="513.27 1743.72 469.01 1812.13 496.82 1874.07 541.08 1805.65 513.27 1743.72"/>
      <polygon class="cls-1" points="1176.6 718.19 1165.36 735.56 1187.85 725.46 1176.6 718.19"/>
      <polygon class="cls-1" points="1224.45 749.14 1210.29 739.98 1218.52 758.31 1224.45 749.14"/>
      <polygon class="cls-1" points="951.5 1171.12 923.69 1109.18 849.85 1223.35 877.66 1285.29 951.5 1171.12"/>
      <polygon class="cls-1" points="1178.3 820.49 1150.49 758.56 1069.75 883.38 1097.56 945.32 1178.3 820.49"/>
      <polygon class="cls-1" points="991.72 1108.94 1057.33 1007.5 1029.53 945.56 963.92 1047 991.72 1108.94"/>
      <polygon class="cls-1" points="409.34 1904.39 455.79 1934.44 428.79 1874.32 409.34 1904.39"/>
      <polygon class="cls-1" points="741.48 1495.82 713.67 1433.88 658.59 1519.04 686.4 1580.98 741.48 1495.82"/>
      <polygon class="cls-1" points="1326.86 781.19 1272.93 746.31 1237.63 800.88 1268.97 870.68 1326.86 781.19"/>
      <polygon class="cls-1" points="1107.79 1119.88 1076.45 1050.07 1010.84 1151.51 1042.18 1221.31 1107.79 1119.88"/>
      <polygon class="cls-1" points="928.11 1397.67 1001.96 1283.5 970.61 1213.69 896.77 1327.86 928.11 1397.67"/>
      <polygon class="cls-1" points="887.89 1459.85 856.55 1390.05 800.82 1476.2 832.16 1546.01 887.89 1459.85"/>
      <polygon class="cls-1" points="760.59 1538.39 705.51 1623.55 736.85 1693.35 791.94 1608.2 760.59 1538.39"/>
      <polygon class="cls-1" points="665.29 1685.73 600.41 1786.04 631.75 1855.84 696.63 1755.54 665.29 1685.73"/>
      <polygon class="cls-1" points="560.19 1848.22 515.94 1916.64 547.28 1986.44 591.53 1918.03 560.19 1848.22"/>
      <polygon class="cls-1" points="378.18 2129.61 432.11 2164.5 507.06 2048.63 475.71 1978.82 378.18 2129.61"/>
      <polygon class="cls-1" points="1148.01 1057.69 1228.75 932.87 1197.41 863.06 1116.67 987.89 1148.01 1057.69"/>
      <polygon class="cls-1" points="612.18 1964.02 567.93 2032.44 598.26 2100 642.52 2031.58 612.18 1964.02"/>
      <polygon class="cls-1" points="1199 1171.25 1279.73 1046.42 1249.4 978.86 1168.66 1103.68 1199 1171.25"/>
      <polygon class="cls-1" points="1093.16 1334.87 1158.77 1233.43 1128.44 1165.87 1062.83 1267.3 1093.16 1334.87"/>
      <polygon class="cls-1" points="1461.7 765.09 1409.51 731.33 1390.61 760.55 1420.94 828.12 1461.7 765.09"/>
      <polygon class="cls-1" points="717.28 1801.53 652.4 1901.84 682.74 1969.4 747.62 1869.09 717.28 1801.53"/>
      <polygon class="cls-1" points="1380.72 890.3 1350.38 822.74 1289.62 916.68 1319.96 984.24 1380.72 890.3"/>
      <polygon class="cls-1" points="883.14 1659.57 938.87 1573.41 908.54 1505.84 852.81 1592 883.14 1659.57"/>
      <polygon class="cls-1" points="812.59 1654.19 757.5 1739.35 787.84 1806.91 842.92 1721.75 812.59 1654.19"/>
      <polygon class="cls-1" points="394.57 2300.45 446.77 2334.21 558.04 2162.18 527.71 2094.62 394.57 2300.45"/>
      <polygon class="cls-1" points="1052.94 1397.05 1022.61 1329.49 948.76 1443.66 979.09 1511.22 1052.94 1397.05"/>
      <polygon class="cls-1" points="674.31 2102.41 630.06 2170.82 660.39 2238.38 704.65 2169.97 674.31 2102.41"/>
      <polygon class="cls-1" points="1382.09 1122.62 1442.85 1028.69 1412.52 961.12 1351.75 1055.06 1382.09 1122.62"/>
      <polygon class="cls-1" points="779.41 1939.92 714.54 2040.22 744.87 2107.78 809.75 2007.48 779.41 1939.92"/>
      <polygon class="cls-1" points="1526.45 899.44 1496.11 831.88 1452.74 898.94 1483.07 966.5 1526.45 899.44"/>
      <polygon class="cls-1" points="1341.87 1184.81 1311.53 1117.25 1230.79 1242.07 1261.13 1309.63 1341.87 1184.81"/>
      <polygon class="cls-1" points="1084.74 1467.88 1010.89 1582.04 1041.23 1649.61 1115.07 1535.44 1084.74 1467.88"/>
      <polygon class="cls-1" points="1573.19 827.17 1557.62 817.1 1566.67 837.26 1573.19 827.17"/>
      <polygon class="cls-1" points="506.06 2362.53 558.26 2396.29 620.17 2300.57 589.84 2233.01 506.06 2362.53"/>
      <polygon class="cls-1" points="914.94 1730.39 945.27 1797.95 1001 1711.79 970.67 1644.23 914.94 1730.39"/>
      <polygon class="cls-1" points="819.64 1877.73 849.97 1945.29 905.05 1860.14 874.72 1792.57 819.64 1877.73"/>
      <polygon class="cls-1" points="1155.3 1473.25 1220.91 1371.82 1190.57 1304.25 1124.96 1405.69 1155.3 1473.25"/>
      <polygon class="cls-1" points="614.43 2409.64 666.62 2443.4 677.06 2427.27 646.72 2359.71 614.43 2409.64"/>
      <polygon class="cls-1" points="1539.96 1093.2 1583.33 1026.14 1553 958.58 1509.62 1025.64 1539.96 1093.2"/>
      <polygon class="cls-1" points="1027.56 1770.93 971.83 1857.09 1002.16 1924.65 1057.89 1838.49 1027.56 1770.93"/>
      <polygon class="cls-1" points="731.2 2229.1 686.95 2297.52 717.28 2365.08 761.53 2296.67 731.2 2229.1"/>
      <polygon class="cls-1" points="1681.56 874.28 1629.36 840.52 1593.22 896.39 1623.56 963.96 1681.56 874.28"/>
      <polygon class="cls-1" points="771.42 2166.92 801.76 2234.48 866.63 2134.18 836.3 2066.62 771.42 2166.92"/>
      <polygon class="cls-1" points="1141.62 1594.57 1067.78 1708.74 1098.11 1776.31 1171.96 1662.14 1141.62 1594.57"/>
      <polygon class="cls-1" points="876.52 2004.43 906.86 2071.99 961.94 1986.84 931.6 1919.27 876.52 2004.43"/>
      <polygon class="cls-1" points="1499.74 1155.38 1469.4 1087.82 1408.64 1181.76 1438.98 1249.32 1499.74 1155.38"/>
      <polygon class="cls-1" points="1318.01 1436.33 1398.75 1311.51 1368.42 1243.94 1287.68 1368.77 1318.01 1436.33"/>
      <polygon class="cls-1" points="1277.79 1498.52 1247.46 1430.95 1181.85 1532.39 1212.18 1599.95 1277.79 1498.52"/>
      <polygon class="cls-1" points="1124.72 1835.58 1155.06 1903.14 1228.91 1788.97 1198.57 1721.41 1124.72 1835.58"/>
      <polygon class="cls-1" points="1455.7 1438.34 1425.36 1370.78 1344.63 1495.6 1374.96 1563.16 1455.7 1438.34"/>
      <polygon class="cls-1" points="1761.32 965.84 1730.99 898.27 1650.17 1023.23 1680.5 1090.79 1761.32 965.84"/>
      <polygon class="cls-1" points="1801.77 903.3 1801.23 902.94 1801.55 903.65 1801.77 903.3"/>
      <polygon class="cls-1" points="1304.4 1557.79 1238.79 1659.22 1269.13 1726.78 1334.74 1625.35 1304.4 1557.79"/>
      <polygon class="cls-1" points="743.89 2424.35 756.72 2452.93 786.84 2472.41 818.48 2423.5 788.14 2355.94 743.89 2424.35"/>
      <polygon class="cls-1" points="1596.9 1220.03 1640.28 1152.97 1609.94 1085.41 1566.57 1152.47 1596.9 1220.03"/>
      <polygon class="cls-1" points="1084.5 1897.76 1028.77 1983.92 1059.11 2051.48 1114.84 1965.32 1084.5 1897.76"/>
      <polygon class="cls-1" points="828.37 2293.75 858.7 2361.31 923.58 2261.01 893.25 2193.45 828.37 2293.75"/>
      <polygon class="cls-1" points="988.55 2046.11 933.47 2131.26 963.8 2198.83 1018.88 2113.67 988.55 2046.11"/>
      <polygon class="cls-1" points="1495.92 1376.16 1556.68 1282.22 1526.35 1214.66 1465.59 1308.59 1495.92 1376.16"/>
      <polygon class="cls-1" points="1938.64 931.66 1908.31 864.1 1834.81 977.73 1865.14 1045.29 1938.64 931.66"/>
      <polygon class="cls-1" points="896.53 2428.33 948.73 2462.09 987.18 2402.66 956.84 2335.09 896.53 2428.33"/>
      <polygon class="cls-1" points="1488.96 1512.42 1408.22 1637.25 1438.56 1704.81 1519.29 1579.98 1488.96 1512.42"/>
      <polygon class="cls-1" points="1262.17 1863.05 1188.32 1977.22 1218.65 2044.78 1292.5 1930.61 1262.17 1863.05"/>
      <polygon class="cls-1" points="1092.37 2125.57 1122.7 2193.13 1178.43 2106.97 1148.1 2039.41 1092.37 2125.57"/>
      <polygon class="cls-1" points="1744.1 1232.43 1824.92 1107.48 1794.58 1039.92 1713.76 1164.87 1744.1 1232.43"/>
      <polygon class="cls-1" points="1052.15 2187.75 997.06 2272.91 1027.4 2340.47 1082.48 2255.31 1052.15 2187.75"/>
      <polygon class="cls-1" points="1302.39 1800.87 1332.72 1868.43 1398.33 1766.99 1368 1699.43 1302.39 1800.87"/>
      <polygon class="cls-1" points="1559.52 1517.8 1620.28 1423.86 1589.94 1356.3 1529.18 1450.24 1559.52 1517.8"/>
      <polygon class="cls-1" points="1703.87 1294.62 1673.54 1227.06 1630.17 1294.11 1660.5 1361.68 1703.87 1294.62"/>
      <polygon class="cls-1" points="1715.99 1485.26 1759.36 1418.2 1729.03 1350.64 1685.65 1417.7 1715.99 1485.26"/>
      <polygon class="cls-1" points="1052.55 2396.49 1061.19 2415.72 1098.52 2439.87 1137.97 2378.9 1107.63 2311.33 1052.55 2396.49"/>
      <polygon class="cls-1" points="1423.49 1823.01 1357.88 1924.45 1388.21 1992.01 1453.82 1890.58 1423.49 1823.01"/>
      <polygon class="cls-1" points="1675.76 1547.44 1645.43 1479.88 1584.67 1573.82 1615 1641.38 1675.76 1547.44"/>
      <polygon class="cls-1" points="1880.41 1231.06 1850.07 1163.5 1769.25 1288.45 1799.58 1356.02 1880.41 1231.06"/>
      <polygon class="cls-1" points="1243.81 2100.8 1274.14 2168.37 1347.99 2054.2 1317.65 1986.63 1243.81 2100.8"/>
      <polygon class="cls-1" points="1463.71 1760.83 1494.04 1828.39 1574.78 1703.57 1544.45 1636.01 1463.71 1760.83"/>
      <polygon class="cls-1" points="1203.58 2162.99 1147.85 2249.15 1178.19 2316.71 1233.92 2230.55 1203.58 2162.99"/>
      <polygon class="cls-1" points="1920.63 1168.88 1994.13 1055.25 1963.79 987.68 1890.29 1101.32 1920.63 1168.88"/>
      <polygon class="cls-1" points="2107.98 879.23 2100.38 862.3 2061.26 837 2004.01 925.5 2034.35 993.06 2107.98 879.23"/>
      <polygon class="cls-1" points="1136.62 2444.37 1179.94 2472.39 1154.77 2416.32 1136.62 2444.37"/>
      <polygon class="cls-1" points="1846.72 1461 1927.54 1336.05 1897.21 1268.49 1816.39 1393.44 1846.72 1461"/>
      <polygon class="cls-1" points="1806.5 1523.19 1776.16 1455.62 1732.79 1522.68 1763.12 1590.24 1806.5 1523.19"/>
      <polygon class="cls-1" points="2081.49 1098.05 2155.12 984.21 2124.78 916.65 2051.15 1030.48 2081.49 1098.05"/>
      <polygon class="cls-1" points="1364.79 2091.62 1290.94 2205.79 1321.28 2273.35 1395.12 2159.18 1364.79 2091.62"/>
      <polygon class="cls-1" points="1591.58 1740.99 1510.85 1865.81 1541.18 1933.38 1621.92 1808.55 1591.58 1740.99"/>
      <polygon class="cls-1" points="1631.81 1678.8 1662.14 1746.37 1722.9 1652.43 1692.57 1584.87 1631.81 1678.8"/>
      <polygon class="cls-1" points="2041.26 1160.23 2010.93 1092.67 1937.43 1206.3 1967.76 1273.86 2041.26 1160.23"/>
      <polygon class="cls-1" points="2203.76 909.01 2183.66 896.02 2195.34 922.03 2203.76 909.01"/>
      <polygon class="cls-1" points="1405.01 2029.43 1435.35 2097 1500.96 1995.56 1470.62 1928 1405.01 2029.43"/>
      <polygon class="cls-1" points="1194.99 2354.13 1225.33 2421.7 1281.06 2335.54 1250.72 2267.97 1194.99 2354.13"/>
      <polygon class="cls-1" points="1527.42 2054.51 1461.81 2155.94 1492.15 2223.5 1557.76 2122.07 1527.42 2054.51"/>
      <polygon class="cls-1" points="1749.37 1711.37 1688.61 1805.31 1718.94 1872.87 1779.7 1778.94 1749.37 1711.37"/>
      <polygon class="cls-1" points="2024.56 1400.37 2098.06 1286.74 2067.73 1219.18 1994.23 1332.81 2024.56 1400.37"/>
      <polygon class="cls-1" points="2138.28 1224.55 2211.92 1110.72 2181.58 1043.16 2107.95 1156.99 2138.28 1224.55"/>
      <polygon class="cls-1" points="1984.34 1462.55 1954.01 1394.99 1873.19 1519.95 1903.52 1587.51 1984.34 1462.55"/>
      <polygon class="cls-1" points="1347.74 2332.3 1378.08 2399.86 1451.92 2285.69 1421.59 2218.13 1347.74 2332.3"/>
      <polygon class="cls-1" points="2374.32 859.63 2370.77 857.33 2372.83 861.93 2374.32 859.63"/>
      <polygon class="cls-1" points="1307.19 2394.99 1307.97 2395.49 1307.52 2394.48 1307.19 2394.99"/>
      <polygon class="cls-1" points="1789.59 1649.19 1819.92 1716.75 1863.3 1649.69 1832.96 1582.13 1789.59 1649.19"/>
      <polygon class="cls-1" points="1567.64 1992.32 1597.98 2059.88 1678.72 1935.06 1648.38 1867.5 1567.64 1992.32"/>
      <polygon class="cls-1" points="2332.61 924.12 2302.28 856.56 2221.8 980.97 2252.14 1048.53 2332.61 924.12"/>
      <polygon class="cls-1" points="2323.81 1208.17 2404.29 1083.76 2373.95 1016.2 2293.48 1140.61 2323.81 1208.17"/>
      <polygon class="cls-1" points="2283.59 1270.36 2253.26 1202.8 2179.63 1316.63 2209.96 1384.19 2283.59 1270.36"/>
      <polygon class="cls-1" points="1760.28 1964.95 1790.61 2032.51 1851.38 1938.58 1821.04 1871.01 1760.28 1964.95"/>
      <polygon class="cls-1" points="2096.24 1560.01 2169.74 1446.38 2139.4 1378.82 2065.9 1492.45 2096.24 1560.01"/>
      <polygon class="cls-1" points="2542.38 870.26 2531.8 863.41 2537.95 877.11 2542.38 870.26"/>
      <polygon class="cls-1" points="1904.64 1741.77 1861.26 1808.83 1891.6 1876.39 1934.97 1809.33 1904.64 1741.77"/>
      <polygon class="cls-1" points="1475.25 2405.61 1518.26 2433.43 1493.26 2377.77 1475.25 2405.61"/>
      <polygon class="cls-1" points="1720.06 2027.14 1639.32 2151.96 1669.65 2219.52 1750.39 2094.7 1720.06 2027.14"/>
      <polygon class="cls-1" points="1533.49 2315.58 1563.82 2383.14 1629.43 2281.71 1599.1 2214.14 1533.49 2315.58"/>
      <polygon class="cls-1" points="2497.73 939.29 2467.4 871.73 2414.17 954.01 2444.51 1021.57 2497.73 939.29"/>
      <polygon class="cls-1" points="1944.86 1679.58 1975.19 1747.15 2056.02 1622.19 2025.68 1554.63 1944.86 1679.58"/>
      <polygon class="cls-1" points="2716.27 859.84 2668.69 829.06 2696.34 890.65 2716.27 859.84"/>
      <polygon class="cls-1" points="1929.75 1961.36 1960.08 2028.93 2003.46 1961.87 1973.12 1894.3 1929.75 1961.36"/>
      <polygon class="cls-1" points="2094.17 1707.17 2013.35 1832.12 2043.68 1899.68 2124.5 1774.73 2094.17 1707.17"/>
      <polygon class="cls-1" points="2134.39 1644.98 2164.72 1712.54 2238.22 1598.91 2207.89 1531.35 2134.39 1644.98"/>
      <polygon class="cls-1" points="2472.77 1236.29 2442.44 1168.73 2361.96 1293.15 2392.3 1360.71 2472.77 1236.29"/>
      <polygon class="cls-1" points="1889.53 2023.55 1828.77 2117.49 1859.1 2185.05 1919.86 2091.11 1889.53 2023.55"/>
      <polygon class="cls-1" points="2512.99 1174.11 2566.22 1091.83 2535.88 1024.26 2482.66 1106.55 2512.99 1174.11"/>
      <polygon class="cls-1" points="2656.12 952.83 2625.78 885.27 2576.1 962.08 2606.44 1029.64 2656.12 952.83"/>
      <polygon class="cls-1" points="1707.81 2304.49 1738.14 2372.06 1818.88 2247.23 1788.54 2179.67 1707.81 2304.49"/>
      <polygon class="cls-1" points="1649.14 2395.19 1693.17 2423.68 1667.58 2366.68 1649.14 2395.19"/>
      <polygon class="cls-1" points="2278.45 1536.73 2352.08 1422.89 2321.74 1355.33 2248.11 1469.17 2278.45 1536.73"/>
      <polygon class="cls-1" points="2869.41 879.59 2817.21 845.82 2733.98 974.49 2764.32 1042.05 2869.41 879.59"/>
      <polygon class="cls-1" points="2275.87 1682.75 2202.37 1796.38 2232.7 1863.95 2306.2 1750.32 2275.87 1682.75"/>
      <polygon class="cls-1" points="2674.42 1181.05 2724.1 1104.24 2693.76 1036.68 2644.08 1113.48 2674.42 1181.05"/>
      <polygon class="cls-1" points="1896.74 2268.89 1927.08 2336.45 1987.84 2242.51 1957.5 2174.95 1896.74 2268.89"/>
      <polygon class="cls-1" points="2460.28 1512.11 2540.75 1387.7 2510.42 1320.13 2429.94 1444.55 2460.28 1512.11"/>
      <polygon class="cls-1" points="1802.28 2414.94 1854.47 2448.7 1886.86 2398.64 1856.52 2331.07 1802.28 2414.94"/>
      <polygon class="cls-1" points="2081.32 1983.52 2111.66 2051.09 2192.48 1926.13 2162.15 1858.57 2081.32 1983.52"/>
      <polygon class="cls-1" points="2316.09 1620.57 2346.42 1688.13 2420.05 1574.3 2389.72 1506.73 2316.09 1620.57"/>
      <polygon class="cls-1" points="2041.1 2045.71 1997.73 2112.77 2028.06 2180.33 2071.44 2113.27 2041.1 2045.71"/>
      <polygon class="cls-1" points="2634.19 1243.23 2603.86 1175.67 2550.64 1257.95 2580.97 1325.51 2634.19 1243.23"/>
      <polygon class="cls-1" points="2615.74 1554.71 2585.4 1487.15 2504.93 1611.56 2535.26 1679.12 2615.74 1554.71"/>
      <polygon class="cls-1" points="2277.35 1963.4 2307.69 2030.96 2381.19 1917.33 2350.85 1849.77 2277.35 1963.4"/>
      <polygon class="cls-1" points="2655.96 1492.52 2709.18 1410.24 2678.84 1342.68 2625.62 1424.96 2655.96 1492.52"/>
      <polygon class="cls-1" points="2993.6 970.52 2963.26 902.96 2808.97 1141.5 2839.3 1209.06 2993.6 970.52"/>
      <polygon class="cls-1" points="2464.71 1673.74 2391.07 1787.58 2421.41 1855.14 2495.04 1741.31 2464.71 1673.74"/>
      <polygon class="cls-1" points="2072.71 2279.78 2103.05 2347.34 2146.42 2280.28 2116.09 2212.72 2072.71 2279.78"/>
      <polygon class="cls-1" points="3055.34 875.07 3003.96 841.84 3033.82 908.34 3055.34 875.07"/>
      <polygon class="cls-1" points="2749.4 1348.06 2799.08 1271.25 2768.75 1203.69 2719.07 1280.49 2749.4 1348.06"/>
      <polygon class="cls-1" points="2237.13 2025.58 2156.31 2150.53 2186.64 2218.1 2267.47 2093.14 2237.13 2025.58"/>
      <polygon class="cls-1" points="1988.21 2410.42 2040.4 2444.19 2062.82 2409.53 2032.49 2341.96 1988.21 2410.42"/>
      <polygon class="cls-1" points="2150.15 2406.1 2202.34 2439.86 2211.63 2425.51 2181.29 2357.95 2150.15 2406.1"/>
      <polygon class="cls-1" points="2570.13 1756.79 2600.47 1824.35 2680.94 1699.94 2650.61 1632.38 2570.13 1756.79"/>
      <polygon class="cls-1" points="2416.06 1995 2342.56 2108.63 2372.89 2176.19 2446.39 2062.56 2416.06 1995"/>
      <polygon class="cls-1" points="2221.52 2295.76 2251.85 2363.33 2332.67 2238.37 2302.34 2170.81 2221.52 2295.76"/>
      <polygon class="cls-1" points="2864.29 1416.48 2833.95 1348.92 2784.27 1425.72 2814.61 1493.29 2864.29 1416.48"/>
      <polygon class="cls-1" points="2904.51 1354.29 3058.8 1115.75 3028.47 1048.19 2874.18 1286.73 2904.51 1354.29"/>
      <polygon class="cls-1" points="2721.16 1637.75 2774.38 1555.47 2744.05 1487.91 2690.83 1570.19 2721.16 1637.75"/>
      <polygon class="cls-1" points="2529.91 1818.97 2456.28 1932.81 2486.61 2000.37 2560.25 1886.54 2529.91 1818.97"/>
      <polygon class="cls-1" points="3217.28 870.75 3165.08 836.99 3068.69 986 3099.03 1053.57 3217.28 870.75"/>
      <polygon class="cls-1" points="2754.6 1712.23 2784.94 1779.79 2838.16 1697.51 2807.82 1629.95 2754.6 1712.23"/>
      <polygon class="cls-1" points="2479.83 2137.03 2406.33 2250.66 2436.67 2318.23 2510.16 2204.6 2479.83 2137.03"/>
      <polygon class="cls-1" points="2520.05 2074.85 2550.39 2142.41 2624.02 2028.57 2593.68 1961.01 2520.05 2074.85"/>
      <polygon class="cls-1" points="3334.74 929.78 3282.54 896.02 3132.46 1128.04 3162.8 1195.6 3334.74 929.78"/>
      <polygon class="cls-1" points="2714.38 1774.41 2633.91 1898.83 2664.24 1966.39 2744.71 1841.98 2714.38 1774.41"/>
      <polygon class="cls-1" points="2968.28 1496.33 3122.58 1257.79 3092.24 1190.23 2937.95 1428.77 2968.28 1496.33"/>
      <polygon class="cls-1" points="2267.61 2465.13 2319.81 2498.9 2396.44 2380.41 2366.11 2312.85 2267.61 2465.13"/>
      <polygon class="cls-1" points="2878.38 1635.32 2928.06 1558.52 2897.73 1490.95 2848.05 1567.76 2878.38 1635.32"/>
      <polygon class="cls-1" points="2659.1 2106.7 2585.47 2220.54 2615.8 2288.1 2689.43 2174.27 2659.1 2106.7"/>
      <polygon class="cls-1" points="2471.74 2396.35 2482.41 2420.1 2445.73 2436.57 2391.05 2521.12 2443.24 2554.88 2575.58 2350.29 2545.24 2282.72 2471.74 2396.35"/>
      <polygon class="cls-1" points="2699.32 2044.52 2729.65 2112.08 2810.13 1987.67 2779.79 1920.1 2699.32 2044.52"/>
      <polygon class="cls-1" points="2943.79 1781.01 2993.47 1704.21 2963.14 1636.64 2913.46 1713.45 2943.79 1781.01"/>
      <polygon class="cls-1" points="3458.18 985.76 3405.98 952 3197.88 1273.73 3228.21 1341.29 3458.18 985.76"/>
      <polygon class="cls-1" points="3033.7 1642.02 3187.99 1403.48 3157.65 1335.92 3003.36 1574.46 3033.7 1642.02"/>
      <polygon class="cls-1" points="2873.24 1775.64 2820.01 1857.92 2850.35 1925.48 2903.57 1843.2 2873.24 1775.64"/>
      <polygon class="cls-1" points="3099.88 1789.44 3254.18 1550.9 3223.84 1483.33 3069.55 1721.88 3099.88 1789.44"/>
      <polygon class="cls-1" points="2886.2 2005.33 2916.54 2072.9 2969.76 1990.62 2939.42 1923.05 2886.2 2005.33"/>
      <polygon class="cls-1" points="3029.33 1784.06 2979.64 1860.87 3009.98 1928.43 3059.66 1851.62 3029.33 1784.06"/>
      <polygon class="cls-1" points="2845.98 2067.52 2765.51 2191.93 2795.84 2259.5 2876.31 2135.08 2845.98 2067.52"/>
      <polygon class="cls-1" points="3575.71 1053.79 3523.51 1020.03 3264.06 1421.15 3294.4 1488.71 3575.71 1053.79"/>
      <polygon class="cls-1" points="2651.65 2367.95 2674.36 2418.54 2617.65 2444 2611.43 2430.14 2508.58 2589.15 2560.78 2622.91 2755.62 2321.68 2725.28 2254.12 2651.65 2367.95"/>
      <polygon class="cls-1" points="2994.19 2045.04 2940.97 2127.32 2971.3 2194.88 3024.52 2112.6 2994.19 2045.04"/>
      <polygon class="cls-1" points="2780.05 2376.1 2596.15 2660.42 2648.35 2694.18 2834.65 2406.15 2800.44 2421.51 2780.05 2376.1"/>
      <polygon class="cls-1" points="3034.41 1982.85 3064.75 2050.41 3114.43 1973.61 3084.09 1906.04 3034.41 1982.85"/>
      <polygon class="cls-1" points="2820.27 2313.92 2850.61 2381.48 2931.08 2257.06 2900.75 2189.5 2820.27 2313.92"/>
      <polygon class="cls-1" points="3154.65 1911.42 3308.94 1672.88 3278.61 1605.32 3124.32 1843.86 3154.65 1911.42"/>
      <polygon class="cls-1" points="3663.28 1125.07 3611.08 1091.3 3318.83 1543.13 3349.17 1610.69 3663.28 1125.07"/>
      <polygon class="cls-1" points="2686.84 2746.67 2739.03 2780.43 2991.1 2390.73 2960.76 2323.17 2686.84 2746.67"/>
      <polygon class="cls-1" points="3094.43 2116.52 3124.76 2184.08 3174.44 2107.27 3144.11 2039.71 3094.43 2116.52"/>
      <polygon class="cls-1" points="3348.18 1724.21 3184.33 1977.53 3214.67 2045.09 3753.97 1211.31 3701.77 1177.55 3378.85 1676.8 3391.42 1704.8 3348.18 1724.21"/>
      <polygon class="cls-1" points="3000.98 2260.99 3031.32 2328.55 3084.54 2246.27 3054.21 2178.7 3000.98 2260.99"/>
      <polygon class="cls-1" points="3028.47 1048.19 3068.69 986 3033.82 908.34 2993.6 970.52 3028.47 1048.19"/>
      <polygon class="cls-1" points="3003.96 841.84 2625.99 0 2569.28 25.46 2963.26 902.96 3003.14 841.31 3003.96 841.84"/>
      <polygon class="cls-1" points="3157.65 1335.92 3197.88 1273.73 3162.8 1195.6 3122.58 1257.79 3157.65 1335.92"/>
      <polygon class="cls-1" points="3334.71 1730.26 3348.18 1724.21 3378.85 1676.8 3349.17 1610.69 3308.94 1672.88 3334.71 1730.26"/>
      <polygon class="cls-1" points="3092.24 1190.23 3132.46 1128.04 3099.03 1053.57 3058.8 1115.75 3092.24 1190.23"/>
      <polygon class="cls-1" points="3223.84 1483.33 3264.06 1421.15 3228.21 1341.29 3187.99 1403.48 3223.84 1483.33"/>
      <polygon class="cls-1" points="3278.61 1605.32 3318.83 1543.13 3294.4 1488.71 3254.18 1550.9 3278.61 1605.32"/>
      <polygon class="cls-1" points="2874.18 1286.73 2839.3 1209.06 2799.08 1271.25 2833.95 1348.92 2874.18 1286.73"/>
      <polygon class="cls-1" points="3084.09 1906.04 3124.32 1843.86 3099.88 1789.44 3059.66 1851.62 3084.09 1906.04"/>
      <polygon class="cls-1" points="2668.69 829.06 2519.06 495.79 2462.35 521.25 2625.78 885.27 2664.07 826.08 2668.69 829.06"/>
      <polygon class="cls-1" points="2693.76 1036.68 2733.98 974.49 2696.34 890.65 2656.12 952.83 2693.76 1036.68"/>
      <polygon class="cls-1" points="3029.33 1784.06 3069.55 1721.88 3033.7 1642.02 2993.47 1704.21 3029.33 1784.06"/>
      <polygon class="cls-1" points="2963.14 1636.64 3003.36 1574.46 2968.28 1496.33 2928.06 1558.52 2963.14 1636.64"/>
      <polygon class="cls-1" points="3174.44 2107.27 3227.77 2226.05 3284.48 2200.59 3214.67 2045.09 3174.44 2107.27"/>
      <polygon class="cls-1" points="3114.43 1973.61 3144.11 2039.71 3184.33 1977.53 3154.65 1911.42 3114.43 1973.61"/>
      <polygon class="cls-1" points="2768.75 1203.69 2808.97 1141.5 2764.32 1042.05 2724.1 1104.24 2768.75 1203.69"/>
      <polygon class="cls-1" points="2897.73 1490.95 2937.95 1428.77 2904.51 1354.29 2864.29 1416.48 2897.73 1490.95"/>
      <polygon class="cls-1" points="2535.88 1024.26 2576.1 962.08 2537.95 877.11 2497.73 939.29 2535.88 1024.26"/>
      <polygon class="cls-1" points="2531.8 863.41 2442.45 664.39 2385.74 689.85 2467.4 871.73 2490.19 836.49 2531.8 863.41"/>
      <polygon class="cls-1" points="2903.57 1843.2 2939.42 1923.05 2979.64 1860.87 2943.79 1781.01 2903.57 1843.2"/>
      <polygon class="cls-1" points="2878.38 1635.32 2838.16 1697.51 2873.24 1775.64 2913.46 1713.45 2878.38 1635.32"/>
      <polygon class="cls-1" points="3151.16 2394.65 3207.87 2369.19 3124.76 2184.08 3084.54 2246.27 3151.16 2394.65"/>
      <polygon class="cls-1" points="2644.08 1113.48 2606.44 1029.64 2566.22 1091.83 2603.86 1175.67 2644.08 1113.48"/>
      <polygon class="cls-1" points="3009.98 1928.43 2969.76 1990.62 2994.19 2045.04 3034.41 1982.85 3009.98 1928.43"/>
      <polygon class="cls-1" points="3024.52 2112.6 3054.21 2178.7 3094.43 2116.52 3064.75 2050.41 3024.52 2112.6"/>
      <polygon class="cls-1" points="2678.84 1342.68 2719.07 1280.49 2674.42 1181.05 2634.19 1243.23 2678.84 1342.68"/>
      <polygon class="cls-1" points="2848.05 1567.76 2814.61 1493.29 2774.38 1555.47 2807.82 1629.95 2848.05 1567.76"/>
      <polygon class="cls-1" points="2744.05 1487.91 2784.27 1425.72 2749.4 1348.06 2709.18 1410.24 2744.05 1487.91"/>
      <polygon class="cls-1" points="2370.77 857.33 2304.84 710.5 2248.13 735.97 2302.28 856.56 2322.13 825.87 2370.77 857.33"/>
      <polygon class="cls-1" points="2850.35 1925.48 2810.13 1987.67 2845.98 2067.52 2886.2 2005.33 2850.35 1925.48"/>
      <polygon class="cls-1" points="2373.95 1016.2 2414.17 954.01 2372.83 861.93 2332.61 924.12 2373.95 1016.2"/>
      <polygon class="cls-1" points="2482.66 1106.55 2444.51 1021.57 2404.29 1083.76 2442.44 1168.73 2482.66 1106.55"/>
      <polygon class="cls-1" points="2510.42 1320.13 2550.64 1257.95 2512.99 1174.11 2472.77 1236.29 2510.42 1320.13"/>
      <polygon class="cls-1" points="2876.31 2135.08 2900.75 2189.5 2940.97 2127.32 2916.54 2072.9 2876.31 2135.08"/>
      <polygon class="cls-1" points="2971.3 2194.88 2931.08 2257.06 2960.76 2323.17 3000.98 2260.99 2971.3 2194.88"/>
      <polygon class="cls-1" points="2625.62 1424.96 2580.97 1325.51 2540.75 1387.7 2585.4 1487.15 2625.62 1424.96"/>
      <polygon class="cls-1" points="2744.71 1841.98 2779.79 1920.1 2820.01 1857.92 2784.94 1779.79 2744.71 1841.98"/>
      <polygon class="cls-1" points="2721.16 1637.75 2680.94 1699.94 2714.38 1774.41 2754.6 1712.23 2721.16 1637.75"/>
      <polygon class="cls-1" points="3013.56 2440.77 3070.27 2415.3 3031.32 2328.55 2991.1 2390.73 3013.56 2440.77"/>
      <polygon class="cls-1" points="2650.61 1632.38 2690.83 1570.19 2655.96 1492.52 2615.74 1554.71 2650.61 1632.38"/>
      <polygon class="cls-1" points="2460.28 1512.11 2420.05 1574.3 2464.71 1673.74 2504.93 1611.56 2460.28 1512.11"/>
      <polygon class="cls-1" points="2857.15 2396.05 2850.61 2381.48 2834.65 2406.15 2857.15 2396.05"/>
      <polygon class="cls-1" points="2535.26 1679.12 2495.04 1741.31 2529.91 1818.97 2570.13 1756.79 2535.26 1679.12"/>
      <polygon class="cls-1" points="2181.58 1043.16 2221.8 980.97 2195.34 922.03 2155.12 984.21 2181.58 1043.16"/>
      <polygon class="cls-1" points="2429.94 1444.55 2392.3 1360.71 2352.08 1422.89 2389.72 1506.73 2429.94 1444.55"/>
      <polygon class="cls-1" points="2795.84 2259.5 2755.62 2321.68 2780.05 2376.1 2820.27 2313.92 2795.84 2259.5"/>
      <polygon class="cls-1" points="2560.25 1886.54 2593.68 1961.01 2633.91 1898.83 2600.47 1824.35 2560.25 1886.54"/>
      <polygon class="cls-1" points="2689.43 2174.27 2725.28 2254.12 2765.51 2191.93 2729.65 2112.08 2689.43 2174.27"/>
      <polygon class="cls-1" points="2664.24 1966.39 2624.02 2028.57 2659.1 2106.7 2699.32 2044.52 2664.24 1966.39"/>
      <polygon class="cls-1" points="2293.48 1140.61 2252.14 1048.53 2211.92 1110.72 2253.26 1202.8 2293.48 1140.61"/>
      <polygon class="cls-1" points="2321.74 1355.33 2361.96 1293.15 2323.81 1208.17 2283.59 1270.36 2321.74 1355.33"/>
      <polygon class="cls-1" points="2107.98 879.23 2124.78 916.65 2151.56 875.25 2183.66 896.02 2091.72 691.25 2035.01 716.71 2100.38 862.3 2113.46 870.76 2107.98 879.23"/>
      <polygon class="cls-1" points="2510.16 2204.6 2545.24 2282.72 2585.47 2220.54 2550.39 2142.41 2510.16 2204.6"/>
      <polygon class="cls-1" points="2278.45 1536.73 2238.22 1598.91 2275.87 1682.75 2316.09 1620.57 2278.45 1536.73"/>
      <polygon class="cls-1" points="1963.66 892.98 1938.64 931.66 1963.79 987.68 2004.01 925.5 1908.94 713.74 1852.23 739.2 1908.31 864.1 1911.47 859.21 1963.66 892.98"/>
      <polygon class="cls-1" points="2421.41 1855.14 2381.19 1917.33 2416.06 1995 2456.28 1932.81 2421.41 1855.14"/>
      <polygon class="cls-1" points="2067.73 1219.18 2107.95 1156.99 2081.49 1098.05 2041.26 1160.23 2067.73 1219.18"/>
      <polygon class="cls-1" points="2051.15 1030.48 2034.35 993.06 1994.13 1055.25 2010.93 1092.67 2051.15 1030.48"/>
      <polygon class="cls-1" points="2486.61 2000.37 2446.39 2062.56 2479.83 2137.03 2520.05 2074.85 2486.61 2000.37"/>
      <polygon class="cls-1" points="2139.4 1378.82 2179.63 1316.63 2138.28 1224.55 2098.06 1286.74 2139.4 1378.82"/>
      <polygon class="cls-1" points="2248.11 1469.17 2209.96 1384.19 2169.74 1446.38 2207.89 1531.35 2248.11 1469.17"/>
      <polygon class="cls-1" points="2615.8 2288.1 2575.58 2350.29 2611.43 2430.14 2651.65 2367.95 2615.8 2288.1"/>
      <polygon class="cls-1" points="2306.2 1750.32 2350.85 1849.77 2391.07 1787.58 2346.42 1688.13 2306.2 1750.32"/>
      <polygon class="cls-1" points="2124.5 1774.73 2162.15 1858.57 2202.37 1796.38 2164.72 1712.54 2124.5 1774.73"/>
      <polygon class="cls-1" points="1801.23 902.94 1716.98 715.3 1660.27 740.76 1730.99 898.27 1749.58 869.53 1801.23 902.94"/>
      <polygon class="cls-1" points="1794.58 1039.92 1834.81 977.73 1801.55 903.65 1761.32 965.84 1794.58 1039.92"/>
      <polygon class="cls-1" points="2232.7 1863.95 2192.48 1926.13 2237.13 2025.58 2277.35 1963.4 2232.7 1863.95"/>
      <polygon class="cls-1" points="2096.24 1560.01 2056.02 1622.19 2094.17 1707.17 2134.39 1644.98 2096.24 1560.01"/>
      <polygon class="cls-1" points="1897.21 1268.49 1937.43 1206.3 1920.63 1168.88 1880.41 1231.06 1897.21 1268.49"/>
      <polygon class="cls-1" points="1890.29 1101.32 1865.14 1045.29 1824.92 1107.48 1850.07 1163.5 1890.29 1101.32"/>
      <polygon class="cls-1" points="2267.47 2093.14 2302.34 2170.81 2342.56 2108.63 2307.69 2030.96 2267.47 2093.14"/>
      <polygon class="cls-1" points="1994.23 1332.81 1967.76 1273.86 1927.54 1336.05 1954.01 1394.99 1994.23 1332.81"/>
      <polygon class="cls-1" points="2372.89 2176.19 2332.67 2238.37 2366.11 2312.85 2406.33 2250.66 2372.89 2176.19"/>
      <polygon class="cls-1" points="2025.68 1554.63 2065.9 1492.45 2024.56 1400.37 1984.34 1462.55 2025.68 1554.63"/>
      <polygon class="cls-1" points="2436.67 2318.23 2396.44 2380.41 2425.7 2445.56 2445.73 2436.57 2471.74 2396.35 2436.67 2318.23"/>
      <polygon class="cls-1" points="2218.7 2441.25 2275.41 2415.79 2251.85 2363.33 2211.63 2425.51 2218.7 2441.25"/>
      <polygon class="cls-1" points="1903.52 1587.51 1863.3 1649.69 1904.64 1741.77 1944.86 1679.58 1903.52 1587.51"/>
      <polygon class="cls-1" points="1934.97 1809.33 1973.12 1894.3 2013.35 1832.12 1975.19 1747.15 1934.97 1809.33"/>
      <polygon class="cls-1" points="1816.39 1393.44 1799.58 1356.02 1759.36 1418.2 1776.16 1455.62 1816.39 1393.44"/>
      <polygon class="cls-1" points="2043.68 1899.68 2003.46 1961.87 2041.1 2045.71 2081.32 1983.52 2043.68 1899.68"/>
      <polygon class="cls-1" points="1609.94 1085.41 1650.17 1023.23 1623.56 963.96 1583.33 1026.14 1609.94 1085.41"/>
      <polygon class="cls-1" points="2071.44 2113.27 2116.09 2212.72 2156.31 2150.53 2111.66 2051.09 2071.44 2113.27"/>
      <polygon class="cls-1" points="2186.64 2218.1 2146.42 2280.28 2181.29 2357.95 2221.52 2295.76 2186.64 2218.1"/>
      <polygon class="cls-1" points="1553 958.58 1593.22 896.39 1566.67 837.26 1526.45 899.44 1553 958.58"/>
      <polygon class="cls-1" points="1729.03 1350.64 1769.25 1288.45 1744.1 1232.43 1703.87 1294.62 1729.03 1350.64"/>
      <polygon class="cls-1" points="1713.76 1164.87 1680.5 1090.79 1640.28 1152.97 1673.54 1227.06 1713.76 1164.87"/>
      <polygon class="cls-1" points="1557.62 817.1 1509.98 710.99 1453.27 736.45 1496.11 831.88 1520.99 793.41 1557.62 817.1"/>
      <polygon class="cls-1" points="1832.96 1582.13 1873.19 1519.95 1846.72 1461 1806.5 1523.19 1832.96 1582.13"/>
      <polygon class="cls-1" points="1509.62 1025.64 1483.07 966.5 1442.85 1028.69 1469.4 1087.82 1509.62 1025.64"/>
      <polygon class="cls-1" points="1685.65 1417.7 1660.5 1361.68 1620.28 1423.86 1645.43 1479.88 1685.65 1417.7"/>
      <polygon class="cls-1" points="1526.35 1214.66 1566.57 1152.47 1539.96 1093.2 1499.74 1155.38 1526.35 1214.66"/>
      <polygon class="cls-1" points="2065.51 2415.51 2122.22 2390.05 2103.05 2347.34 2062.82 2409.53 2065.51 2415.51"/>
      <polygon class="cls-1" points="1779.7 1778.94 1821.04 1871.01 1861.26 1808.83 1819.92 1716.75 1779.7 1778.94"/>
      <polygon class="cls-1" points="1412.52 961.12 1452.74 898.94 1420.94 828.12 1380.72 890.3 1412.52 961.12"/>
      <polygon class="cls-1" points="1356.79 685.25 1300.08 710.71 1350.38 822.74 1390.61 760.55 1356.79 685.25"/>
      <polygon class="cls-1" points="2028.06 2180.33 1987.84 2242.51 2032.49 2341.96 2072.71 2279.78 2028.06 2180.33"/>
      <polygon class="cls-1" points="1692.57 1584.87 1732.79 1522.68 1715.99 1485.26 1675.76 1547.44 1692.57 1584.87"/>
      <polygon class="cls-1" points="1763.12 1590.24 1722.9 1652.43 1749.37 1711.37 1789.59 1649.19 1763.12 1590.24"/>
      <polygon class="cls-1" points="1919.86 2091.11 1957.5 2174.95 1997.73 2112.77 1960.08 2028.93 1919.86 2091.11"/>
      <polygon class="cls-1" points="1891.6 1876.39 1851.38 1938.58 1889.53 2023.55 1929.75 1961.36 1891.6 1876.39"/>
      <polygon class="cls-1" points="1589.94 1356.3 1630.17 1294.11 1596.9 1220.03 1556.68 1282.22 1589.94 1356.3"/>
      <polygon class="cls-1" points="1201.1 719.51 1187.85 725.46 1210.29 739.98 1201.1 719.51"/>
      <polygon class="cls-1" points="1488.96 1512.42 1529.18 1450.24 1495.92 1376.16 1455.7 1438.34 1488.96 1512.42"/>
      <polygon class="cls-1" points="1750.39 2094.7 1788.54 2179.67 1828.77 2117.49 1790.61 2032.51 1750.39 2094.7"/>
      <polygon class="cls-1" points="1368.42 1243.94 1408.64 1181.76 1382.09 1122.62 1341.87 1184.81 1368.42 1243.94"/>
      <polygon class="cls-1" points="1144.39 744.97 1150.49 758.56 1165.36 735.56 1144.39 744.97"/>
      <polygon class="cls-1" points="1465.59 1308.59 1438.98 1249.32 1398.75 1311.51 1425.36 1370.78 1465.59 1308.59"/>
      <polygon class="cls-1" points="1859.1 2185.05 1818.88 2247.23 1856.52 2331.07 1896.74 2268.89 1859.1 2185.05"/>
      <polygon class="cls-1" points="1718.94 1872.87 1678.72 1935.06 1720.06 2027.14 1760.28 1964.95 1718.94 1872.87"/>
      <polygon class="cls-1" points="1197.41 863.06 1237.63 800.88 1218.52 758.31 1178.3 820.49 1197.41 863.06"/>
      <polygon class="cls-1" points="1909.82 2449.77 1966.53 2424.31 1927.08 2336.45 1886.86 2398.64 1909.82 2449.77"/>
      <polygon class="cls-1" points="1249.4 978.86 1289.62 916.68 1268.97 870.68 1228.75 932.87 1249.4 978.86"/>
      <polygon class="cls-1" points="1544.45 1636.01 1584.67 1573.82 1559.52 1517.8 1519.29 1579.98 1544.45 1636.01"/>
      <polygon class="cls-1" points="1351.75 1055.06 1319.96 984.24 1279.73 1046.42 1311.53 1117.25 1351.75 1055.06"/>
      <polygon class="cls-1" points="1615 1641.38 1574.78 1703.57 1591.58 1740.99 1631.81 1678.8 1615 1641.38"/>
      <polygon class="cls-1" points="1621.92 1808.55 1648.38 1867.5 1688.61 1805.31 1662.14 1746.37 1621.92 1808.55"/>
      <polygon class="cls-1" points="1304.4 1557.79 1344.63 1495.6 1318.01 1436.33 1277.79 1498.52 1304.4 1557.79"/>
      <polygon class="cls-1" points="1438.56 1704.81 1398.33 1766.99 1423.49 1823.01 1463.71 1760.83 1438.56 1704.81"/>
      <polygon class="cls-1" points="1557.76 2122.07 1599.1 2214.14 1639.32 2151.96 1597.98 2059.88 1557.76 2122.07"/>
      <polygon class="cls-1" points="1029.53 945.56 1069.75 883.38 1044.02 826.07 1003.79 888.25 1029.53 945.56"/>
      <polygon class="cls-1" points="1334.74 1625.35 1368 1699.43 1408.22 1637.25 1374.96 1563.16 1334.74 1625.35"/>
      <polygon class="cls-1" points="1453.82 1890.58 1470.62 1928 1510.85 1865.81 1494.04 1828.39 1453.82 1890.58"/>
      <polygon class="cls-1" points="1190.57 1304.25 1230.79 1242.07 1199 1171.25 1158.77 1233.43 1190.57 1304.25"/>
      <polygon class="cls-1" points="1128.44 1165.87 1168.66 1103.68 1148.01 1057.69 1107.79 1119.88 1128.44 1165.87"/>
      <polygon class="cls-1" points="1541.18 1933.38 1500.96 1995.56 1527.42 2054.51 1567.64 1992.32 1541.18 1933.38"/>
      <polygon class="cls-1" points="1006.32 742.1 949.61 767.56 975.98 826.31 1016.21 764.13 1006.32 742.1"/>
      <polygon class="cls-1" points="1669.65 2219.52 1629.43 2281.71 1667.58 2366.68 1707.81 2304.49 1669.65 2219.52"/>
      <polygon class="cls-1" points="1116.67 987.89 1097.56 945.32 1057.33 1007.5 1076.45 1050.07 1116.67 987.89"/>
      <polygon class="cls-1" points="1693.17 2423.68 1715.03 2472.36 1771.74 2446.9 1738.14 2372.06 1701.34 2428.96 1693.17 2423.68"/>
      <polygon class="cls-1" points="1287.68 1368.77 1261.13 1309.63 1220.91 1371.82 1247.46 1430.95 1287.68 1368.77"/>
      <polygon class="cls-1" points="1269.13 1726.78 1228.91 1788.97 1262.17 1863.05 1302.39 1800.87 1269.13 1726.78"/>
      <polygon class="cls-1" points="1084.74 1467.88 1124.96 1405.69 1093.16 1334.87 1052.94 1397.05 1084.74 1467.88"/>
      <polygon class="cls-1" points="1395.12 2159.18 1421.59 2218.13 1461.81 2155.94 1435.35 2097 1395.12 2159.18"/>
      <polygon class="cls-1" points="1141.62 1594.57 1181.85 1532.39 1155.3 1473.25 1115.07 1535.44 1141.62 1594.57"/>
      <polygon class="cls-1" points="970.61 1213.69 1010.84 1151.51 991.72 1108.94 951.5 1171.12 970.61 1213.69"/>
      <polygon class="cls-1" points="1518.26 2433.43 1535.05 2470.83 1591.76 2445.37 1563.82 2383.14 1527.45 2439.37 1518.26 2433.43"/>
      <polygon class="cls-1" points="963.92 1047 938.18 989.69 897.96 1051.87 923.69 1109.18 963.92 1047"/>
      <polygon class="cls-1" points="1492.15 2223.5 1451.92 2285.69 1493.26 2377.77 1533.49 2315.58 1492.15 2223.5"/>
      <polygon class="cls-1" points="1171.96 1662.14 1198.57 1721.41 1238.79 1659.22 1212.18 1599.95 1171.96 1662.14"/>
      <polygon class="cls-1" points="1292.5 1930.61 1317.65 1986.63 1357.88 1924.45 1332.72 1868.43 1292.5 1930.61"/>
      <polygon class="cls-1" points="1062.83 1267.3 1042.18 1221.31 1001.96 1283.5 1022.61 1329.49 1062.83 1267.3"/>
      <polygon class="cls-1" points="870.15 989.93 910.37 927.75 877.45 854.43 837.23 916.61 870.15 989.93"/>
      <polygon class="cls-1" points="1388.21 1992.01 1347.99 2054.2 1364.79 2091.62 1405.01 2029.43 1388.21 1992.01"/>
      <polygon class="cls-1" points="826.33 740.57 769.62 766.03 809.42 854.67 849.64 792.49 826.33 740.57"/>
      <polygon class="cls-1" points="908.54 1505.84 948.76 1443.66 928.11 1397.67 887.89 1459.85 908.54 1505.84"/>
      <polygon class="cls-1" points="938.87 1573.41 970.67 1644.23 1010.89 1582.04 979.09 1511.22 938.87 1573.41"/>
      <polygon class="cls-1" points="1218.65 2044.78 1178.43 2106.97 1203.58 2162.99 1243.81 2100.8 1218.65 2044.78"/>
      <polygon class="cls-1" points="625.17 874.72 665.39 812.53 640.5 757.08 632.07 760.87 597.82 813.81 625.17 874.72"/>
      <polygon class="cls-1" points="1307.97 2395.49 1349.21 2487.34 1405.92 2461.88 1378.08 2399.86 1359.39 2428.75 1307.97 2395.49"/>
      <polygon class="cls-1" points="809.62 1285.54 849.85 1223.35 824.11 1166.04 783.89 1228.23 809.62 1285.54"/>
      <polygon class="cls-1" points="1098.11 1776.31 1057.89 1838.49 1084.5 1897.76 1124.72 1835.58 1098.11 1776.31"/>
      <polygon class="cls-1" points="695.35 1031.03 735.58 968.84 693.2 874.47 652.98 936.65 695.35 1031.03"/>
      <polygon class="cls-1" points="796.3 1104.1 763.38 1030.78 723.16 1092.97 756.08 1166.29 796.3 1104.1"/>
      <polygon class="cls-1" points="1233.92 2230.55 1250.72 2267.97 1290.94 2205.79 1274.14 2168.37 1233.92 2230.55"/>
      <polygon class="cls-1" points="896.77 1327.86 877.66 1285.29 837.43 1347.48 856.55 1390.05 896.77 1327.86"/>
      <polygon class="cls-1" points="1321.28 2273.35 1281.06 2335.54 1307.52 2394.48 1347.74 2332.3 1321.28 2273.35"/>
      <polygon class="cls-1" points="1041.23 1649.61 1001 1711.79 1027.56 1770.93 1067.78 1708.74 1041.23 1649.61"/>
      <polygon class="cls-1" points="1114.84 1965.32 1148.1 2039.41 1188.32 1977.22 1155.06 1903.14 1114.84 1965.32"/>
      <polygon class="cls-1" points="660.13 1314.63 700.35 1252.45 667.43 1179.12 627.21 1241.31 660.13 1314.63"/>
      <polygon class="cls-1" points="852.81 1592 832.16 1546.01 791.94 1608.2 812.59 1654.19 852.81 1592"/>
      <polygon class="cls-1" points="599.4 1179.37 639.62 1117.19 597.25 1022.81 557.03 1085 599.4 1179.37"/>
      <polygon class="cls-1" points="569.44 960.87 542.1 899.97 501.87 962.15 529.22 1023.06 569.44 960.87"/>
      <polygon class="cls-1" points="1082.48 2255.31 1107.63 2311.33 1147.85 2249.15 1122.7 2193.13 1082.48 2255.31"/>
      <polygon class="cls-1" points="842.92 1721.75 874.72 1792.57 914.94 1730.39 883.14 1659.57 842.92 1721.75"/>
      <polygon class="cls-1" points="753.89 1371.7 728.16 1314.38 687.94 1376.57 713.67 1433.88 753.89 1371.7"/>
      <polygon class="cls-1" points="760.59 1538.39 800.82 1476.2 781.7 1433.64 741.48 1495.82 760.59 1538.39"/>
      <polygon class="cls-1" points="905.05 1860.14 931.6 1919.27 971.83 1857.09 945.27 1797.95 905.05 1860.14"/>
      <polygon class="cls-1" points="1178.19 2316.71 1137.97 2378.9 1154.77 2416.32 1194.99 2354.13 1178.19 2316.71"/>
      <polygon class="cls-1" points="478.54 758.4 421.83 783.87 474.06 900.21 514.29 838.03 478.54 758.4"/>
      <polygon class="cls-1" points="1179.94 2472.39 1187.25 2488.67 1243.96 2463.2 1225.33 2421.7 1188.82 2478.13 1179.94 2472.39"/>
      <polygon class="cls-1" points="1059.11 2051.48 1018.88 2113.67 1052.15 2187.75 1092.37 2125.57 1059.11 2051.48"/>
      <polygon class="cls-1" points="1002.16 1924.65 961.94 1986.84 988.55 2046.11 1028.77 1983.92 1002.16 1924.65"/>
      <polygon class="cls-1" points="866.63 2134.18 893.25 2193.45 933.47 2131.26 906.86 2071.99 866.63 2134.18"/>
      <polygon class="cls-1" points="325.72 777.65 269.01 803.11 378.76 1047.56 418.98 985.37 325.72 777.65"/>
      <polygon class="cls-1" points="572.13 1326.47 531.91 1388.65 564.83 1461.98 605.05 1399.79 572.13 1326.47"/>
      <polygon class="cls-1" points="686.4 1580.98 646.18 1643.16 665.29 1685.73 705.51 1623.55 686.4 1580.98"/>
      <polygon class="cls-1" points="963.8 2198.83 923.58 2261.01 956.84 2335.09 997.06 2272.91 963.8 2198.83"/>
      <polygon class="cls-1" points="1052.55 2396.49 1027.4 2340.47 987.18 2402.66 1034.43 2507.91 1091.14 2482.45 1061.19 2415.72 1046.33 2406.11 1052.55 2396.49"/>
      <polygon class="cls-1" points="787.84 1806.91 747.62 1869.09 779.41 1939.92 819.64 1877.73 787.84 1806.91"/>
      <polygon class="cls-1" points="544.32 1264.53 501.95 1170.15 461.72 1232.34 504.1 1326.71 544.32 1264.53"/>
      <polygon class="cls-1" points="736.85 1693.35 696.63 1755.54 717.28 1801.53 757.5 1739.35 736.85 1693.35"/>
      <polygon class="cls-1" points="474.14 1108.22 446.79 1047.31 406.57 1109.49 433.92 1170.4 474.14 1108.22"/>
      <polygon class="cls-1" points="632.86 1461.73 592.64 1523.91 618.37 1581.23 658.59 1519.04 632.86 1461.73"/>
      <polygon class="cls-1" points="809.75 2007.48 836.3 2066.62 876.52 2004.43 849.97 1945.29 809.75 2007.48"/>
      <polygon class="cls-1" points="167.1 820.94 110.39 846.4 273.66 1210.05 313.88 1147.86 167.1 820.94"/>
      <polygon class="cls-1" points="744.87 2107.78 704.65 2169.97 731.2 2229.1 771.42 2166.92 744.87 2107.78"/>
      <polygon class="cls-1" points="467.03 1488.96 426.8 1551.14 459.73 1624.46 499.95 1562.28 467.03 1488.96"/>
      <polygon class="cls-1" points="396.85 1332.64 356.62 1394.83 399 1489.2 439.22 1427.02 396.85 1332.64"/>
      <polygon class="cls-1" points="369.04 1270.71 341.69 1209.8 301.47 1271.98 328.81 1332.89 369.04 1270.71"/>
      <polygon class="cls-1" points="631.75 1855.84 591.53 1918.03 612.18 1964.02 652.4 1901.84 631.75 1855.84"/>
      <polygon class="cls-1" points="761.53 2296.67 788.14 2355.94 828.37 2293.75 801.76 2234.48 761.53 2296.67"/>
      <polygon class="cls-1" points="581.3 1743.47 541.08 1805.65 560.19 1848.22 600.41 1786.04 581.3 1743.47"/>
      <polygon class="cls-1" points="875.81 2551.2 932.52 2525.74 858.7 2361.31 818.48 2423.5 875.81 2551.2"/>
      <polygon class="cls-1" points="682.74 1969.4 642.52 2031.58 674.31 2102.41 714.54 2040.22 682.74 1969.4"/>
      <polygon class="cls-1" points="527.76 1624.22 487.53 1686.4 513.27 1743.72 553.49 1681.53 527.76 1624.22"/>
      <polygon class="cls-1" points="430.36 1726.03 404.75 1709.46 415.47 1692.88 382.55 1619.56 379.66 1624.03 331.81 1593.08 354.74 1557.62 312.37 1463.25 272.15 1525.43 428.79 1874.32 469.01 1812.13 430.36 1726.03"/>
      <polygon class="cls-1" points="743.89 2424.35 717.28 2365.08 677.06 2427.27 765.43 2624.09 822.14 2598.62 756.72 2452.93 734.64 2438.65 743.89 2424.35"/>
      <polygon class="cls-1" points="496.82 1874.07 457.19 1935.35 455.79 1934.44 475.71 1978.82 515.94 1916.64 496.82 1874.07"/>
      <polygon class="cls-1" points="598.26 2100 558.04 2162.18 589.84 2233.01 630.06 2170.82 598.26 2100"/>
      <polygon class="cls-1" points="547.28 1986.44 507.06 2048.63 527.71 2094.62 567.93 2032.44 547.28 1986.44"/>
      <polygon class="cls-1" points="257.21 1340.4 216.99 1402.58 244.34 1463.49 284.56 1401.31 257.21 1340.4"/>
      <polygon class="cls-1" points="660.39 2238.38 620.17 2300.57 646.72 2359.71 686.95 2297.52 660.39 2238.38"/>
      <polygon class="cls-1" points="56.71 893.83 0 919.29 189.18 1340.65 229.41 1278.46 56.71 893.83"/>
    </g>
  </g>
</svg>