<?xml version="1.0" encoding="UTF-8"?>
<svg id="Layer_2" data-name="Layer 2" xmlns="http://www.w3.org/2000/svg" viewBox="0 0 220.5 199.32">
  <defs>
    <style>
      .cls-1, .cls-2 {
        stroke-width: 0px;
      }

      .cls-2 {
        fill: #01090e;
      }
    </style>
  </defs>
  <g id="Layer_1-2" data-name="Layer 1">
    <g>
      <path class="cls-1" d="M171.5,171.32l.5.5,28.5-.25.25-52.75,11.75.25-.25,79.75-20,.5-.25-19.75c-54.11-1.53-108.53.34-162.75-.75l-1,20H8.25v-80l11.75.25.25,52.75,27.25-.25c2.66-25.41-3.07-15.26-5-18-1-1.42.99-30.41.75-34.75l9.25.25c-.77,4.39,1.01,33.57,0,35-1.4,1.98-5.6-6.69-3.75,17.75l30.25-.25.5-17-5.5-1,.75-34.75h8.5c1.63.89.26,30.21.75,34.75-.63,1.43-3.5.28-4,1-.49.71.19,15.01.25,17.25l28.75-.25c-.66-2.86.84-16.22.5-17-.69-1.56-4.92-.18-5.5-1-1-1.42.22-30.63.75-34.75l8.75.25c-.53,4.86.69,32.92,0,34.5-.6,1.37-3.03.33-3.5,1-.49.71.19,15.01.25,17.25l29.25-.75c1.31-24.67-2.9-15.22-4.5-17.5-1-1.42.22-30.63.75-34.75l8.75.75c-.52,4.8.68,32.44,0,34-.63,1.43-3.5.28-4,1-.49.7.37,14.65,0,17l31-.25Z"/>
      <g>
        <path class="cls-1" d="M20,85.82c57.29-.19,114.71-.23,172,0,4.49.02,9.02-.13,13.5,0,4.96.14,10.02.72,15,.75l-.75,28.75H.75l-.75-28.75c.37-.52,6.11-.19,7.25-.25.41-.02.2-1,.25-1,.75-.02.37,1.01.75,1,3.86-.11,7.94-.49,11.75-.5Z"/>
        <path class="cls-1" d="M205.5,85.82c-4.48-.13-9.01.02-13.5,0,1.89-49.71-25.12-24.74-68.75-48.5-7.86-4.28-14.93-10.46-23-14.5-25.15-12.58-52.9-11.89-80.25-10.75v73.75c-3.81.01-7.89.39-11.75.5-.38.01,0-1.02-.75-1V1.07c21.4-.36,59.53-2.83,79.25,1.25,24.78,5.13,35.79,23.83,57.5,32,33.63,12.66,65.58-7.29,61.25,51.5Z"/>
      </g>
      <g>
        <path class="cls-1" d="M172,154.32c-.16.01-.34,0-.5,0-.89,0-4.25.11-4.5-.25v-35l8.75-.25.75,34.75c-.89,1.29-2.74.59-4.5.75Z"/>
        <path class="cls-2" d="M172,171.82l-.5-.5v-17c.16,0,.34.01.5,0v17.5Z"/>
      </g>
    </g>
  </g>
</svg>