<?xml version="1.0" encoding="UTF-8"?>
<svg id="Layer_2" data-name="Layer 2" xmlns="http://www.w3.org/2000/svg" viewBox="0 0 79.44 33.37">
  <defs>
    <style>
      .cls-1, .cls-2 {
        stroke-width: 0px;
      }

      .cls-2 {
        fill: #fff;
      }
    </style>
  </defs>
  <g id="Trumpet">
    <g>
      <path class="cls-1" d="M77.21.03c1.72-.59,2.16,8.94,2.2,10.09.11,2.97-.09,13.57-.91,15.93-1.17,3.36-2.12-.92-4.93-3.11-3.73-2.9-11.96-4.4-16.69-4.7.52,12.91-7.45,9.55-16.84,10.02.62,6.56-4.71,6-5.24,2.81-.35-2.14.44-14.56,0-15.17-.08-.12-.8-.1-.83-.08-.61.43.27,13.09.08,14.95-.35,3.46-5.96,4.27-5.24-2.5-4.32-.03-7.47.82-10.39-3.11-1.95-2.61-1.79-6.33-.99-9.33-4.93.08-9.82.02-14.72-.61.31,3.43-2.3,3.23-2.66,1.59-.06-.29-.06-5.63,0-5.92.32-1.48,2.62-2.17,2.81,1.14,8.6-1.12,17.3-.41,25.95-.61-.62-5.55,4.11-4.97,4.93-2.96.18.44.03,3.79.83,3.11.6-.51-.51-3.69,1.82-4.4,2.83-.87,3.93,1.85,3.49,4.25,9.49.32,27.92-.51,34.83-7.81.91-.97,2.3-3.5,2.5-3.57Z"/>
      <path class="cls-2" d="M40.03,15.81c2.15.2,9.27-.33,10.62.15,1.4.49,3.52,3.11,3.11,6.15-.67,4.96-7.49,2.3-13.58,2.96l-.15-9.26Z"/>
      <path class="cls-2" d="M21.37,15.81l7.51.08-.23,9.18h-5.31c-3.44-2.61-5.12-5.54-1.97-9.26Z"/>
    </g>
  </g>
</svg>